PathFileType	4	(X/Y/Z)	C:/Users/opensim2020/Desktop/walking_exp_matlab/subject06_walking23_straight_03.trc																																																																																																																																					
DataRate	CameraRate	NumFrames	NumMarkers	Units	OrigDataRate	OrigDataStartFrame	OrigNumFrames																																																																																																																																	
100	100	5	45	mm	100	1763	94																																																																																																																																	
Frame#	Time	LFHD			RFHD			LBHD			RBHD			C7			T10			CLAV			STRN			RBAK			LSHO			LUPA			LELB			LFRM			LWRA			LWRB			LFIN			RSHO			RUPA			RELB			RFRM			RWRA			RWRB			RFIN			LASI			RASI			LPSI			RPSI			LTHI			LKNE			LTIB			LANK			LHEE			LTOE			RTHI			RKNE			RTIB			RANK			RHEE			RTOE			*39			*40			*41			*42			*43			*44		
		X1	Y1	Z1	X2	Y2	Z2	X3	Y3	Z3	X4	Y4	Z4	X5	Y5	Z5	X6	Y6	Z6	X7	Y7	Z7	X8	Y8	Z8	X9	Y9	Z9	X10	Y10	Z10	X11	Y11	Z11	X12	Y12	Z12	X13	Y13	Z13	X14	Y14	Z14	X15	Y15	Z15	X16	Y16	Z16	X17	Y17	Z17	X18	Y18	Z18	X19	Y19	Z19	X20	Y20	Z20	X21	Y21	Z21	X22	Y22	Z22	X23	Y23	Z23	X24	Y24	Z24	X25	Y25	Z25	X26	Y26	Z26	X27	Y27	Z27	X28	Y28	Z28	X29	Y29	Z29	X30	Y30	Z30	X31	Y31	Z31	X32	Y32	Z32	X33	Y33	Z33	X34	Y34	Z34	X35	Y35	Z35	X36	Y36	Z36	X37	Y37	Z37	X38	Y38	Z38	X39	Y39	Z39	X40	Y40	Z40	X41	Y41	Z41	X42	Y42	Z42	X43	Y43	Z43	X44	Y44	Z44	X45	Y45	Z45
																																																																																																																																								
24	0.23	-332.73074	1631.40234	1354.51709	-332.06845	1624.12964	1486.2478	-464.89975	1574.59351	1356.40784	-462.81384	1572.29065	1485.91321	-461.6626	1423.13782	1408.85718	-523.24963	1100.03442	1418.25525	-355.806	1339.82458	1418.32776	-329.68851	1161.80872	1410.41956	-549.84406	1259.96423	1479.21399	-394.73291	1375.39221	1253.84167	-381.53113	1176.58948	1177.9082	-368.54791	1066.0874	1163.23962	-257.89008	970.36115	1165.06079	-146.46538	944.2063	1232.44641	-174.99873	890.61523	1195.56714	-87.73145	872.3432	1212.18127	-412.44061	1373.54529	1575.39038	-507.64822	1198.78137	1660.57813	-534.98608	1079.29163	1678.45496	-551.33209	960.42072	1698.76807	-528.20996	809.27887	1670.23083	-579.71429	826.49396	1710.32397	-568.42767	742.05676	1711.01147	-361.81436	924.16913	1314.04272	-344.16415	945.79871	1530.5127	-515.94971	959.54126	1349.63269	-497.76428	971.20807	1516.04346	-476.0831	613.63232	1264.45898	-505.28018	451.19699	1284.30542	-710.9953	299.0881	1296.7135	-840.93762	186.57312	1334.89465	-873.05701	214.03102	1378.87585	-797.00964	46.85446	1358.96228	-310.06311	631.45734	1597.30212	-256.38843	519.81171	1562.93787	-248.67238	252.84338	1554.11865	-236.50787	71.04063	1500.42285	-273.74219	48.47849	1454.25085	-83.83477	42.05599	1497.27368	-433.65561	1669.41455	1413.01025	NaN	NaN	NaN	NaN	NaN	NaN	NaN	NaN	NaN	NaN	NaN	NaN	NaN	NaN	NaN
25	0.24	-318.62247	1633.77954	1356.05151	-317.72397	1626.16895	1487.77478	-450.78534	1576.78259	1358.12708	-448.48065	1574.19507	1487.62463	-447.47482	1424.89307	1410.52283	-508.29926	1102.19861	1419.04346	-341.06482	1342.10999	1419.24475	-314.77542	1164.15808	1410.81665	-534.85699	1262.0072	1480.84045	-380.8909	1378.16565	1255.54443	-368.73767	1179.42725	1180.11975	-357.87509	1068.87378	1166.07019	-249.30539	970.41187	1166.5592	-138.03259	941.53302	1232.82361	-168.32849	888.9234	1196.7561	-81.7132	867.31061	1213.02258	-396.96613	1375.68799	1576.42126	-489.61823	1199.70374	1662.31982	-515.67963	1080.10107	1680.11926	-530.49329	961.16425	1700.64478	-505.8223	810.19336	1672.37219	-557.30029	826.93597	1712.67358	-545.31982	742.53027	1713.23132	-346.67111	926.22351	1315.08325	-329.23734	949.50824	1531.77954	-500.78607	961.04156	1350.28003	-482.94839	974.04443	1516.54944	-454.28802	612.80554	1265.60779	-478.60641	449.8475	1284.64868	-686.10486	303.26648	1296.14905	-819.43835	195.37354	1332.96448	-848.53168	225.8587	1376.71106	-788.93066	51.65178	1357.87183	-295.92908	634.11633	1598.64575	-245.7428	520.83466	1564.67419	-244.32013	253.15311	1554.64941	-236.24316	70.98441	1500.44922	-273.75653	48.51842	1454.10461	-83.40878	41.54694	1497.18665	-419.54993	1671.49451	1414.87598	NaN	NaN	NaN	NaN	NaN	NaN	NaN	NaN	NaN	NaN	NaN	NaN	NaN	NaN	NaN
26	0.25	-304.70523	1636.42517	1357.62634	-303.52509	1628.41699	1489.21057	-436.66125	1579.21594	1359.80627	-434.03375	1576.23364	1489.2688	-433.53854	1427.10083	1412.2323	-493.73718	1104.62463	1420.04077	-326.60043	1344.58508	1419.98145	-300.14627	1166.63623	1411.12549	-519.79944	1263.98645	1482.52698	-367.66699	1380.90686	1256.84729	-356.13788	1182.10095	1182.30115	-347.75943	1071.39038	1168.69177	-241.44777	969.99811	1168.01758	-129.97125	938.31824	1233.06897	-162.27982	886.62018	1197.4801	-76.82174	861.46747	1213.7522	-381.41977	1377.78137	1577.46594	-471.69882	1200.65576	1664.09924	-496.46048	1080.94348	1681.94055	-509.51169	961.84528	1702.61963	-483.13342	811.04559	1674.18555	-534.43512	827.4502	1714.92871	-521.42017	743.16034	1715.31482	-331.92371	928.19629	1315.44226	-314.47586	952.51154	1532.77515	-486.1712	962.66327	1351.28369	-468.12509	976.88763	1517.52307	-432.73761	612.40045	1266.98193	-451.82471	449.19263	1285.37793	-659.52191	306.63556	1295.68457	-795.88995	203.33224	1331.11267	-821.48077	236.73732	1374.59351	-778.5813	57.39124	1357.61243	-283.81165	635.77576	1600.26965	-237.36526	521.26892	1566.49719	-240.42195	253.35892	1555.54028	-236.27168	71.33645	1500.45728	-273.93719	48.66955	1454.19202	-83.22191	40.73818	1496.98315	-405.47699	1673.79858	1416.78027	NaN	NaN	NaN	NaN	NaN	NaN	NaN	NaN	NaN	NaN	NaN	NaN	NaN	NaN	NaN
27	0.26	-290.63193	1639.36902	1359.07275	-288.99606	1630.87708	1490.71497	-422.53381	1582.05884	1361.41614	-419.59189	1578.59216	1490.8678	-419.84763	1429.94104	1413.97498	-479.17395	1107.13025	1421.11328	-312.46243	1347.24268	1420.50684	-285.82559	1169.27808	1411.31177	-505.17758	1266.37708	1484.55908	-354.84775	1383.69812	1257.74426	-344.6105	1184.53979	1184.3302	-337.84741	1073.64282	1170.89636	-234.21268	969.30859	1169.37952	-122.46375	934.43628	1233.23328	-156.82896	883.75238	1197.9447	-72.09814	855.18646	1214.34656	-365.75839	1379.93909	1578.55505	-453.68204	1201.61755	1665.9458	-477.0535	1081.73682	1684.01526	-488.37796	962.49628	1704.58789	-459.68869	812.2511	1676.04773	-511.06924	827.68622	1716.81982	-496.87543	743.8302	1717.47693	-317.71902	930.29199	1315.88708	-299.60724	955.24048	1534.18652	-471.83734	964.39508	1352.53418	-454.05789	979.67786	1518.72754	-411.2709	612.58447	1268.48926	-424.60959	449.35214	1286.38184	-631.4162	308.8389	1295.55286	-771.80872	211.22569	1329.91235	-794.76727	245.91473	1373.56641	-762.7132	63.91188	1355.73804	-274.58487	635.81982	1601.34436	-229.8644	521.18695	1568.22046	-236.37067	253.66869	1556.03821	-236.0056	71.51409	1500.39465	-273.87305	48.85365	1454.31177	-82.78782	40.36553	1496.78174	-391.30359	1676.44678	1418.66296	NaN	NaN	NaN	NaN	NaN	NaN	NaN	NaN	NaN	NaN	NaN	NaN	NaN	NaN	NaN
28	0.27	-276.47992	1642.38525	1360.45154	-274.50061	1633.3374	1492.05554	-408.51663	1585.28857	1363.02869	-405.18604	1581.26306	1492.41638	-405.31927	1432.85303	1415.35706	-464.93317	1109.84888	1422.44312	-298.54312	1350.05762	1421.08215	-271.76968	1172.04639	1411.43372	-490.48749	1268.94629	1486.83936	-342.22174	1386.53992	1258.30762	-333.27048	1186.74438	1185.75	-328.22366	1075.51672	1172.69104	-226.69113	967.95862	1170.2854	-115.52165	929.89148	1233.24805	-151.98132	880.48804	1198.10559	-68.44863	848.41888	1214.75134	-350.12796	1382.19287	1579.62683	-435.58826	1202.64929	1667.78589	-458.08722	1082.63562	1685.83203	-467.06766	963.21277	1706.47278	-435.89444	813.44037	1677.55383	-487.29919	828.0235	1718.64038	-471.23575	744.61597	1719.50854	-303.79782	932.60461	1316.2616	-285.89737	957.4209	1534.61072	-458.06067	966.32452	1354.02356	-439.21948	982.38336	1519.96729	-390.0705	613.3642	1270.30603	-397.57635	450.35782	1287.51624	-602.84741	310.50818	1294.87512	-747.28528	218.26851	1329.83105	-770.19525	252.48422	1373.64612	-738.70892	69.60185	1353.69629	-266.5481	635.77008	1602.02673	-222.42876	520.91693	1569.33679	-233.73607	253.85803	1556.78662	-235.73337	71.67306	1500.23352	-273.86444	49.04546	1454.36182	-82.26421	40.0082	1496.68652	-376.939	1679.35779	1420.5387	NaN	NaN	NaN	NaN	NaN	NaN	NaN	NaN	NaN	NaN	NaN	NaN	NaN	NaN	NaN
